grf
version=1
nRows=17
nColumns=37
inDegrees=no
endheader
time	ground_force_1_vx	ground_force_1_vy	ground_force_1_vz	ground_force_1_px	ground_force_1_py	ground_force_1_pz	ground_moment_1_mx	ground_moment_1_my	ground_moment_1_mz	ground_force_2_vx	ground_force_2_vy	ground_force_2_vz	ground_force_2_px	ground_force_2_py	ground_force_2_pz	ground_moment_2_mx	ground_moment_2_my	ground_moment_2_mz	ground_force_3_vx	ground_force_3_vy	ground_force_3_vz	ground_force_3_px	ground_force_3_py	ground_force_3_pz	ground_moment_3_mx	ground_moment_3_my	ground_moment_3_mz	ground_force_4_vx	ground_force_4_vy	ground_force_4_vz	ground_force_4_px	ground_force_4_py	ground_force_4_pz	ground_moment_4_mx	ground_moment_4_my	ground_moment_4_mz
      1.60000000	      0.00000000	     -0.00000000	      0.00000000	      0.00000000	      0.00000000	      0.00000000	      0.00000000	      0.00000000	      0.00000000	      1.74973595	     23.05033112	   -328.59384155	   -299.79315894	  -1139.55184208	      0.00000000	      0.00000000	      0.00000000	   7788.79418500	      7.13125868	    -28.33864625	   -358.49322510	   -303.06704347	   -692.91615777	      0.00000000	      0.00000000	     -0.00000000	  -7064.00581055	      0.00000000	     -0.00000000	      0.00000000	      0.00000000	      0.00000000	      0.00000000	      0.00000000	      0.00000000	      0.00000000
      1.61000000	      0.00000000	     -0.00000000	      0.00000000	      0.00000000	      0.00000000	      0.00000000	      0.00000000	      0.00000000	      0.00000000	      1.24894714	     23.60847855	   -329.82617188	   -300.05955266	  -1140.11329950	      0.00000000	      0.00000000	      0.00000000	   7853.59453593	      6.15405295	    -27.82133129	   -355.69619751	   -302.75495775	   -694.59960214	      0.00000000	      0.00000000	     -0.00000000	  -6972.43281943	      0.00000000	     -0.00000000	      0.00000000	      0.00000000	      0.00000000	      0.00000000	      0.00000000	      0.00000000	      0.00000000
      1.62000000	      0.00000000	     -0.00000000	      0.00000000	      0.00000000	      0.00000000	      0.00000000	      0.00000000	      0.00000000	      0.00000000	      0.61324960	     23.92058945	   -329.20812988	   -297.76012552	  -1140.81464830	      0.00000000	      0.00000000	      0.00000000	   7850.78571507	      6.27658105	    -27.29140118	   -359.18936157	   -302.50470215	   -691.82419899	      0.00000000	      0.00000000	     -0.00000000	  -7065.32810542	      0.00000000	     -0.00000000	      0.00000000	      0.00000000	      0.00000000	      0.00000000	      0.00000000	      0.00000000	      0.00000000
      1.63000000	      0.00000000	     -0.00000000	      0.00000000	      0.00000000	      0.00000000	      0.00000000	      0.00000000	      0.00000000	      0.00000000	      0.90347826	     23.83190536	   -332.56042480	   -296.77214696	  -1142.10915508	      0.00000000	      0.00000000	      0.00000000	   7850.71651253	      6.90815385	    -25.50249321	   -358.92785645	   -301.07448083	   -693.01175269	      0.00000000	      0.00000000	     -0.00000000	  -6850.92965158	      0.00000000	     -0.00000000	      0.00000000	      0.00000000	      0.00000000	      0.00000000	      0.00000000	      0.00000000	      0.00000000
      1.64000000	      0.00000000	     -0.00000000	      0.00000000	      0.00000000	      0.00000000	      0.00000000	      0.00000000	      0.00000000	      0.00000000	      1.26045513	     24.17448235	   -332.82089233	   -295.31962030	  -1140.36843344	      0.00000000	      0.00000000	      0.00000000	   7836.73650742	      7.59486568	    -24.51931796	   -361.85592651	   -301.11620690	   -694.02039617	      0.00000000	      0.00000000	     -0.00000000	  -7075.63609619	      0.00000000	     -0.00000000	      0.00000000	      0.00000000	      0.00000000	      0.00000000	      0.00000000	      0.00000000	      0.00000000
      1.65000000	      0.00000000	     -0.00000000	      0.00000000	      0.00000000	      0.00000000	      0.00000000	      0.00000000	      0.00000000	      0.00000000	     -0.20934546	     24.75091553	   -334.47741699	   -294.12795986	  -1140.14509757	      0.00000000	      0.00000000	      0.00000000	   7628.05234049	      7.07756318	    -24.27694542	   -367.86920166	   -300.12597355	   -692.93058316	      0.00000000	      0.00000000	     -0.00000000	  -6888.95874857	      0.00000000	     -0.00000000	      0.00000000	      0.00000000	      0.00000000	      0.00000000	      0.00000000	      0.00000000	      0.00000000
      1.66000000	      0.00000000	     -0.00000000	      0.00000000	      0.00000000	      0.00000000	      0.00000000	      0.00000000	      0.00000000	      0.00000000	     -1.86830330	     24.11899757	   -336.29425049	   -292.64949123	  -1140.24248940	      0.00000000	      0.00000000	      0.00000000	   7814.30863664	      6.70011468	    -22.93356925	   -368.86904907	   -299.98245272	   -693.43437455	      0.00000000	     -0.00000000	     -0.00000000	  -6678.49615589	      0.00000000	     -0.00000000	      0.00000000	      0.00000000	      0.00000000	      0.00000000	      0.00000000	      0.00000000	      0.00000000
      1.67000000	      0.00000000	     -0.00000000	      0.00000000	      0.00000000	      0.00000000	      0.00000000	      0.00000000	      0.00000000	      0.00000000	     -3.01497674	     23.76205254	   -339.16973877	   -291.13352866	  -1141.99661056	      0.00000000	      0.00000000	      0.00000000	   7671.03931876	      6.15656993	    -22.42191723	   -367.05160522	   -298.94547171	   -694.27146787	      0.00000000	      0.00000000	     -0.00000000	  -6862.61752343	      0.00000000	     -0.00000000	      0.00000000	      0.00000000	      0.00000000	      0.00000000	      0.00000000	      0.00000000	      0.00000000
      1.68000000	      0.00000000	     -0.00000000	      0.00000000	      0.00000000	      0.00000000	      0.00000000	      0.00000000	      0.00000000	      0.00000000	     -4.87033510	     23.67990685	   -337.12496948	   -289.47618352	  -1141.87565311	      0.00000000	      0.00000000	      0.00000000	   7412.23862445	      5.22915456	    -22.32151245	   -365.72213745	   -297.82045470	   -694.76687335	      0.00000000	      0.00000000	     -0.00000000	  -6798.03527262	      0.00000000	     -0.00000000	      0.00000000	      0.00000000	      0.00000000	      0.00000000	      0.00000000	      0.00000000	      0.00000000
      1.69000000	      0.00000000	     -0.00000000	      0.00000000	      0.00000000	      0.00000000	      0.00000000	      0.00000000	      0.00000000	      0.00000000	     -6.02964687	     22.98343277	   -336.99652100	   -287.77745664	  -1143.63407959	      0.00000000	      0.00000000	      0.00000000	   7440.87841809	      4.68953989	    -22.25706502	   -363.51458740	   -296.53787786	   -693.15968841	      0.00000000	      0.00000000	     -0.00000000	  -6646.46473625	      0.00000000	     -0.00000000	      0.00000000	      0.00000000	      0.00000000	      0.00000000	      0.00000000	      0.00000000	      0.00000000
      1.70000000	      0.00000000	     -0.00000000	      0.00000000	      0.00000000	      0.00000000	      0.00000000	      0.00000000	      0.00000000	      0.00000000	     -7.61031961	     22.39913177	   -335.16778564	   -286.11466644	  -1143.69326577	      0.00000000	      0.00000000	      0.00000000	   7213.42335925	      4.28264572	    -21.49880237	   -359.12094116	   -295.85210988	   -693.23497599	      0.00000000	      0.00000000	     -0.00000000	  -6591.09658926	      0.00000000	     -0.00000000	      0.00000000	      0.00000000	      0.00000000	      0.00000000	      0.00000000	      0.00000000	      0.00000000
      1.71000000	      0.00000000	     -0.00000000	      0.00000000	      0.00000000	      0.00000000	      0.00000000	      0.00000000	      0.00000000	      0.00000000	     -8.75513554	     22.23095131	   -333.55703735	   -285.19359594	  -1144.07212179	      0.00000000	      0.00000000	      0.00000000	   7182.91574479	      4.51183754	    -20.43938084	   -357.32867432	   -294.76952311	   -693.33844726	      0.00000000	      0.00000000	     -0.00000000	  -6518.79124294	      0.00000000	     -0.00000000	      0.00000000	      0.00000000	      0.00000000	      0.00000000	      0.00000000	      0.00000000	      0.00000000
      1.72000000	      0.00000000	     -0.00000000	      0.00000000	      0.00000000	      0.00000000	      0.00000000	      0.00000000	      0.00000000	      0.00000000	     -9.95433140	     21.48042679	   -330.22326660	   -283.22685624	  -1142.99726156	      0.00000000	      0.00000000	      0.00000000	   6921.36990609	      4.25811684	    -19.03999538	   -354.53710938	   -293.54962007	   -693.78195629	      0.00000000	      0.00000000	     -0.00000000	  -6273.36087362	      0.00000000	     -0.00000000	      0.00000000	      0.00000000	      0.00000000	      0.00000000	      0.00000000	      0.00000000	      0.00000000
      1.73000000	      0.00000000	     -0.00000000	      0.00000000	      0.00000000	      0.00000000	      0.00000000	      0.00000000	      0.00000000	      0.00000000	    -10.46320438	     20.79293633	   -331.23214722	   -282.29962829	  -1145.14734893	      0.00000000	      0.00000000	      0.00000000	   6875.89436661	      3.83994786	    -18.08080881	   -353.54125977	   -292.82246965	   -693.51533656	      0.00000000	      0.00000000	     -0.00000000	  -6290.82089641	      0.00000000	     -0.00000000	      0.00000000	      0.00000000	      0.00000000	      0.00000000	      0.00000000	      0.00000000	      0.00000000
      1.74000000	      0.00000000	     -0.00000000	      0.00000000	      0.00000000	      0.00000000	      0.00000000	      0.00000000	      0.00000000	      0.00000000	    -11.50815582	     20.80486870	   -331.94296265	   -281.30360067	  -1143.64051002	      0.00000000	      0.00000000	      0.00000000	   6702.26397451	      3.63714141	    -17.56324402	   -356.33236694	   -293.32611849	   -693.01559008	      0.00000000	      0.00000000	     -0.00000000	  -6294.63141281	      0.00000000	     -0.00000000	      0.00000000	      0.00000000	      0.00000000	      0.00000000	      0.00000000	      0.00000000	      0.00000000
      1.75000000	      0.00000000	     -0.00000000	      0.00000000	      0.00000000	      0.00000000	      0.00000000	      0.00000000	      0.00000000	      0.00000000	    -12.75710297	     20.68906593	   -336.67504883	   -279.97631073	  -1145.05631096	      0.00000000	      0.00000000	      0.00000000	   6828.66341367	      3.49862454	    -16.95776382	   -357.62521362	   -292.69855384	   -694.12660213	      0.00000000	      0.00000000	     -0.00000000	  -6376.25938259	      0.00000000	     -0.00000000	      0.00000000	      0.00000000	      0.00000000	      0.00000000	      0.00000000	      0.00000000	      0.00000000
      1.76000000	      0.00000000	     -0.00000000	      0.00000000	      0.00000000	      0.00000000	      0.00000000	      0.00000000	      0.00000000	      0.00000000	    -13.90362549	     20.53959846	   -336.73742676	   -279.70099106	  -1143.02886731	      0.00000000	      0.00000000	     -0.00000000	   6778.42196901	      2.29336306	    -17.12134753	   -362.80792236	   -291.86054869	   -693.51015715	      0.00000000	     -0.00000000	     -0.00000000	  -6262.28534839	      0.00000000	     -0.00000000	      0.00000000	      0.00000000	      0.00000000	      0.00000000	      0.00000000	      0.00000000	      0.00000000
